<svg id="Capa_1" data-name="Capa 1" xmlns="http://www.w3.org/2000/svg" viewBox="0 0 480 320"><defs><style>.cls-1{fill:#fff;}.cls-2{fill:#363639;}.cls-3{fill:#f6b776;}</style></defs><rect class="cls-1" width="480" height="320"/><path class="cls-2" d="M215.9,195.09v-3.16h-3.77v-2.38h6.66v8h-7.15l-.6-.08a5.12,5.12,0,0,1-.57-.11c-.22-.06-.51-.16-.88-.29a5.08,5.08,0,0,1-1.42-.94,4.77,4.77,0,0,1-1.32-2.1,8.94,8.94,0,0,1-.48-3v-.8a6.67,6.67,0,0,1,.23-1.84,7.43,7.43,0,0,1,.6-1.56,5.22,5.22,0,0,1,.89-1.25,5.78,5.78,0,0,1,1.52-1,7.15,7.15,0,0,1,3.1-.51h6.08v2.35h-6.08a3,3,0,0,0-1.93.57,3.08,3.08,0,0,0-1,1.55,8.17,8.17,0,0,0-.28,2.18v.2a5.92,5.92,0,0,0,.67,3.08,2.69,2.69,0,0,0,2.52,1.11Z"/><path class="cls-2" d="M224.06,197.54h-2.59v-9.88h4.39a3.84,3.84,0,0,1,1.8.33,1.56,1.56,0,0,1,.77.92,5.8,5.8,0,0,1,.17,1.62v1.25h-2.47V191a3.6,3.6,0,0,0-.1-1,.56.56,0,0,0-.35-.34l-.44-.06-.62,0h-.56Z"/><path class="cls-2" d="M239.05,195.5v2h-3.81a4.85,4.85,0,0,1-3.76-1.35,5.14,5.14,0,0,1-1.23-3.6,4.83,4.83,0,0,1,1-3.31,4.33,4.33,0,0,1,1.92-1.34,7.48,7.48,0,0,1,2.11-.28h3.81v2H235.6a5.7,5.7,0,0,0-1.33.13,1.31,1.31,0,0,0-.77.55,1.88,1.88,0,0,0-.34,1.2h5.89v2.08h-5.89a2.11,2.11,0,0,0,.27,1.17,1.37,1.37,0,0,0,.78.56,6.84,6.84,0,0,0,1.37.11Z"/><path class="cls-2" d="M243.87,197.54h-2.58v-9.88h10a8.13,8.13,0,0,1,1.76.18,3.85,3.85,0,0,1,1.27.61,2.7,2.7,0,0,1,.79,1.09,4.59,4.59,0,0,1,.28,1.74v6.26h-2.6v-5.92a2.87,2.87,0,0,0-.18-1.15A.92.92,0,0,0,252,190a2.87,2.87,0,0,0-.92-.14h-1.49v7.73H247v-7.73h-3.08Z"/><path class="cls-2" d="M258.28,184.05H261v2.46h-2.7Zm0,3.61H261v9.88h-2.7Z"/><path class="cls-2" d="M272.17,196.36a4.41,4.41,0,0,1-1.47.93,9.79,9.79,0,0,1-1.25.37,6,6,0,0,1-3.12-.28,4.53,4.53,0,0,1-1.71-1,3.93,3.93,0,0,1-1-1.43,7.5,7.5,0,0,1-.39-1.28,5.75,5.75,0,0,1,.19-2.87,7,7,0,0,1,.55-1.13,5.29,5.29,0,0,1,.79-.93,4,4,0,0,1,1.51-.9,6,6,0,0,1,2.12-.37,6.18,6.18,0,0,1,2.05.35,4.11,4.11,0,0,1,1.54.88,5.47,5.47,0,0,1,.81.94,6.14,6.14,0,0,1,.55,1.12,5.11,5.11,0,0,1,.28,1.85,5.78,5.78,0,0,1-.37,2.06A4.81,4.81,0,0,1,272.17,196.36Zm-4.66-.9a1.21,1.21,0,0,0,.39.11,2.54,2.54,0,0,0,1.92-.43,2.18,2.18,0,0,0,.87-1.14,4.32,4.32,0,0,0,.22-1.37,3.84,3.84,0,0,0-.37-1.74,2.22,2.22,0,0,0-1.17-1.08,3,3,0,0,0-1-.18,2.92,2.92,0,0,0-1,.2,2.7,2.7,0,0,0-.84.62,2.51,2.51,0,0,0-.52.92,4,4,0,0,0-.18,1.26,3.61,3.61,0,0,0,.41,1.72A2.26,2.26,0,0,0,267.51,195.46Z"/><path class="cls-3" d="M238,153.4h-7.87v3.93H238v12.13H224.5a6.14,6.14,0,0,1-6.14-6.13v-9.61h-3.93v9.61A10.08,10.08,0,0,0,224.5,173.4H242v-20H238Z"/><path class="cls-3" d="M249.84,145.86H245.9v11.47h3.94v-7.54h11.8v13.54a6.14,6.14,0,0,1-6.14,6.13h-9.6v3.94h9.6a10.08,10.08,0,0,0,10.07-10.07V145.86H249.84Z"/><path class="cls-3" d="M255.5,122.25H238v15.41h0v3.93h11.81v-3.93H242V126.18H255.5a6.15,6.15,0,0,1,6.14,6.14v9.44h3.93v-9.44A10.08,10.08,0,0,0,255.5,122.25Z"/><path class="cls-3" d="M218.36,149.79H234.1V137.66h-3.94v8.2h-11.8V132.32a6.15,6.15,0,0,1,6.14-6.14h9.6v-3.93h-9.6a10.08,10.08,0,0,0-10.07,10.07v17.47h3.93Z"/></svg>