<svg id="Capa_1" data-name="Capa 1" xmlns="http://www.w3.org/2000/svg" viewBox="0 0 1600 960"><defs><style>.cls-1{fill:#fff;}.cls-2{fill:#363639;}.cls-3{fill:#f6b776;}</style></defs><rect class="cls-1" width="1600" height="960"/><path class="cls-2" d="M719.67,597V586.45H707.1v-7.94h22.2v26.64H705.48c-.79-.13-1.46-.22-2-.28a14.25,14.25,0,0,1-1.91-.38c-.7-.19-1.68-.51-2.93-1a17,17,0,0,1-4.7-3.13,15.78,15.78,0,0,1-4.43-7,29.84,29.84,0,0,1-1.59-9.88v-2.69a23.78,23.78,0,0,1,.75-6.13,25.08,25.08,0,0,1,2-5.19,18.27,18.27,0,0,1,3-4.16,19,19,0,0,1,5.07-3.47q3.34-1.68,10.35-1.69H729.3V568H709a9.85,9.85,0,0,0-6.44,1.91,10.09,10.09,0,0,0-3.26,5.16,26.27,26.27,0,0,0-.93,7.25V583q0,6.57,2.22,10.26T709,597Z"/><path class="cls-2" d="M746.87,605.15h-8.63v-33h14.64a12.42,12.42,0,0,1,6,1.13,5.15,5.15,0,0,1,2.57,3.06,20.41,20.41,0,0,1,.56,5.38V586h-8.26v-2.63a11.83,11.83,0,0,0-.31-3.41,1.87,1.87,0,0,0-1.19-1.15c-.54-.09-1-.15-1.44-.19s-1.1-.06-2.06-.06h-1.88Z"/><path class="cls-2" d="M796.84,598.33v6.82H784.15q-8.45,0-12.54-4.51t-4.1-12c0-5,1.06-8.68,3.19-11a14.3,14.3,0,0,1,6.41-4.47,24.92,24.92,0,0,1,7-.94h12.69V579H785.33a18,18,0,0,0-4.44.43,4.44,4.44,0,0,0-2.56,1.82,6.34,6.34,0,0,0-1.13,4h19.64v6.94H777.2a7,7,0,0,0,.91,3.91,4.62,4.62,0,0,0,2.6,1.85,21.41,21.41,0,0,0,4.56.37Z"/><path class="cls-2" d="M812.91,605.15h-8.63v-33h33.34a26.46,26.46,0,0,1,5.88.62,11.94,11.94,0,0,1,4.22,2,8.58,8.58,0,0,1,2.65,3.63,15.22,15.22,0,0,1,.94,5.78v20.89h-8.69V585.39a9.75,9.75,0,0,0-.59-3.82,3.14,3.14,0,0,0-1.91-1.75,9.8,9.8,0,0,0-3.07-.44h-4.94v25.77h-8.94V579.38H812.91Z"/><path class="cls-2" d="M860.94,560.18h9v8.19h-9Zm0,12h9v33h-9Z"/><path class="cls-2" d="M907.22,601.21a14.46,14.46,0,0,1-4.88,3.09,26.65,26.65,0,0,1-4.19,1.22,19,19,0,0,1-3.5.32,20.55,20.55,0,0,1-6.88-1.22,15.81,15.81,0,0,1-5.72-3.41,13.18,13.18,0,0,1-3.28-4.79,25.51,25.51,0,0,1-1.32-4.25,18.85,18.85,0,0,1-.31-3.53,16.52,16.52,0,0,1,1-6,22.94,22.94,0,0,1,1.81-3.78,20,20,0,0,1,2.63-3.1,14,14,0,0,1,5.07-3,20.05,20.05,0,0,1,7-1.22,20.49,20.49,0,0,1,6.85,1.16,13.92,13.92,0,0,1,5.13,2.94,19.37,19.37,0,0,1,2.72,3.13,20.62,20.62,0,0,1,1.81,3.75,17.05,17.05,0,0,1,.94,6.16,19.62,19.62,0,0,1-1.22,6.85A15.76,15.76,0,0,1,907.22,601.21Zm-15.51-3a4.66,4.66,0,0,0,1.28.37,9.15,9.15,0,0,0,1.54.13,8.14,8.14,0,0,0,4.87-1.57,7.43,7.43,0,0,0,2.91-3.81,14.89,14.89,0,0,0,.72-4.57,12.82,12.82,0,0,0-1.22-5.78,7.31,7.31,0,0,0-3.91-3.6,9.69,9.69,0,0,0-3.19-.62,9.33,9.33,0,0,0-3.37.68,9,9,0,0,0-2.82,2.07,8.44,8.44,0,0,0-1.72,3.06,13.67,13.67,0,0,0-.59,4.19,12.29,12.29,0,0,0,1.34,5.76A7.82,7.82,0,0,0,891.71,598.21Z"/><path class="cls-3" d="M793.44,458H767.21V471.1h26.23v40.44H748.32a20.47,20.47,0,0,1-20.45-20.45v-32H714.76v32a33.6,33.6,0,0,0,33.56,33.56h58.24V458H793.44Z"/><path class="cls-3" d="M832.79,432.85H819.67V471.1h13.12V446h39.34v45.12a20.48,20.48,0,0,1-20.45,20.45h-32v13.11h32a33.6,33.6,0,0,0,33.56-33.56V432.85H832.79Z"/><path class="cls-3" d="M851.68,354.16H793.44v51.37h0v13.11h39.35V405.53H806.56V367.28h45.12a20.47,20.47,0,0,1,20.45,20.45v31.46h13.11V387.73A33.6,33.6,0,0,0,851.68,354.16Z"/><path class="cls-3" d="M727.87,446h52.46V405.53H767.21v27.32H727.87V387.73a20.47,20.47,0,0,1,20.45-20.45h32V354.16h-32a33.6,33.6,0,0,0-33.56,33.57V446h13.11Z"/></svg>