<svg id="Capa_1" data-name="Capa 1" xmlns="http://www.w3.org/2000/svg" viewBox="0 0 720 1280"><defs><style>.cls-1{fill:#fff;}.cls-2{fill:#363639;}.cls-3{fill:#f6b776;}</style></defs><rect class="cls-1" width="720" height="1280"/><path class="cls-2" d="M295.74,553.09v-8.4H285.68v-6.36h17.76v21.32H284.39c-.64-.1-1.18-.18-1.62-.23a10.77,10.77,0,0,1-1.53-.3c-.56-.15-1.34-.41-2.34-.77a13.74,13.74,0,0,1-3.77-2.5,12.79,12.79,0,0,1-3.54-5.61,23.8,23.8,0,0,1-1.27-7.9v-2.15a19,19,0,0,1,.6-4.91,19.76,19.76,0,0,1,1.6-4.15,14.41,14.41,0,0,1,2.38-3.33A15,15,0,0,1,279,525q2.67-1.35,8.28-1.35h16.21v6.25H287.23a7.85,7.85,0,0,0-5.15,1.53,8,8,0,0,0-2.6,4.12,21,21,0,0,0-.75,5.81v.55q0,5.25,1.77,8.2c1.18,2,3.43,3,6.73,3Z"/><path class="cls-2" d="M317.5,559.65h-6.91V533.28H322.3a10,10,0,0,1,4.8.9,4.1,4.1,0,0,1,2.06,2.45,16.2,16.2,0,0,1,.45,4.31v3.35H323v-2.1a9.35,9.35,0,0,0-.25-2.73,1.51,1.51,0,0,0-.95-.93l-1.15-.15c-.33,0-.88,0-1.65,0h-1.5Z"/><path class="cls-2" d="M357.47,554.19v5.46H347.32q-6.76,0-10-3.6T334,546.44c0-4,.85-7,2.55-8.83a11.45,11.45,0,0,1,5.13-3.58,20.07,20.07,0,0,1,5.63-.75h10.15v5.45h-9.2a14.36,14.36,0,0,0-3.55.35,3.53,3.53,0,0,0-2.06,1.46,5.06,5.06,0,0,0-.9,3.2h15.71v5.55H341.76a5.63,5.63,0,0,0,.73,3.13,3.61,3.61,0,0,0,2.08,1.47,17.07,17.07,0,0,0,3.65.3Z"/><path class="cls-2" d="M370.33,559.65h-6.9V533.28h26.66a21.07,21.07,0,0,1,4.71.5,9.46,9.46,0,0,1,3.37,1.63,6.91,6.91,0,0,1,2.13,2.9,12.29,12.29,0,0,1,.75,4.63v16.71H394.1V543.84a7.57,7.57,0,0,0-.48-3.05,2.46,2.46,0,0,0-1.53-1.4,7.53,7.53,0,0,0-2.45-.36h-3.95v20.62h-7.15V539h-8.21Z"/><path class="cls-2" d="M408.75,523.68H416v6.55h-7.21Zm0,9.6H416v26.37h-7.21Z"/><path class="cls-2" d="M445.78,556.5a11.79,11.79,0,0,1-3.9,2.47,22,22,0,0,1-3.36,1,15.94,15.94,0,0,1-2.8.25,16.37,16.37,0,0,1-5.5-1,12.65,12.65,0,0,1-4.58-2.72,10.71,10.71,0,0,1-2.63-3.83,21.51,21.51,0,0,1-1.05-3.4,15.94,15.94,0,0,1-.25-2.83,13.21,13.21,0,0,1,.78-4.83,17.72,17.72,0,0,1,1.45-3,15.81,15.81,0,0,1,2.1-2.47,11.14,11.14,0,0,1,4-2.4,16.06,16.06,0,0,1,5.63-1,16.3,16.3,0,0,1,5.48.93,11,11,0,0,1,4.1,2.35,15.07,15.07,0,0,1,2.18,2.5,16.89,16.89,0,0,1,1.45,3,13.78,13.78,0,0,1,.75,4.93,15.41,15.41,0,0,1-1,5.48A12.68,12.68,0,0,1,445.78,556.5Zm-12.41-2.41a3.23,3.23,0,0,0,1,.3,7.26,7.26,0,0,0,1.22.1,6.5,6.5,0,0,0,3.9-1.25,5.91,5.91,0,0,0,2.33-3,12.05,12.05,0,0,0,.58-3.65,10.35,10.35,0,0,0-1-4.63,5.86,5.86,0,0,0-3.13-2.88,7.71,7.71,0,0,0-2.55-.5,7.48,7.48,0,0,0-2.7.55,7.24,7.24,0,0,0-2.25,1.66,6.72,6.72,0,0,0-1.38,2.45,11,11,0,0,0-.47,3.35,9.81,9.81,0,0,0,1.07,4.6A6.24,6.24,0,0,0,433.37,554.09Z"/><path class="cls-3" d="M354.75,441.92h-21v10.49h21v32.35H318.66A16.38,16.38,0,0,1,302.3,468.4V442.79H291.8V468.4a26.88,26.88,0,0,0,26.86,26.85h46.59V441.92h-10.5Z"/><path class="cls-3" d="M386.23,421.81H375.74v30.6h10.49V432.3H417.7v36.1a16.38,16.38,0,0,1-16.36,16.36h-25.6v10.49h25.6A26.88,26.88,0,0,0,428.2,468.4V421.81h-42Z"/><path class="cls-3" d="M401.34,358.86H354.75V400h0v10.49h31.48V400h-21v-30.6h36.09a16.38,16.38,0,0,1,16.36,16.36v25.17h10.5V385.71A26.89,26.89,0,0,0,401.34,358.86Z"/><path class="cls-3" d="M302.3,432.3h42V400H333.77v21.86H302.3v-36.1a16.38,16.38,0,0,1,16.36-16.36h25.6V358.86h-25.6a26.89,26.89,0,0,0-26.86,26.85V432.3h10.5Z"/></svg>