<svg id="Capa_1" data-name="Capa 1" xmlns="http://www.w3.org/2000/svg" viewBox="0 0 320 480"><defs><style>.cls-1{fill:#fff;}.cls-2{fill:#363639;}.cls-3{fill:#f6b776;}</style></defs><rect class="cls-1" width="320" height="480"/><path class="cls-2" d="M135.9,207.41v-3.15h-3.77v-2.38h6.66v8h-7.15l-.6-.09a3.54,3.54,0,0,1-.57-.11c-.22-.06-.51-.15-.88-.29a5.08,5.08,0,0,1-1.42-.94,4.77,4.77,0,0,1-1.32-2.1,8.88,8.88,0,0,1-.48-3v-.81a6.72,6.72,0,0,1,.23-1.84,7.65,7.65,0,0,1,.6-1.56,5.16,5.16,0,0,1,.89-1.24,5.55,5.55,0,0,1,1.52-1.05,7.33,7.33,0,0,1,3.1-.5h6.08v2.34h-6.08a2.91,2.91,0,0,0-1.93.58,3,3,0,0,0-1,1.54,8.17,8.17,0,0,0-.28,2.18v.21a5.88,5.88,0,0,0,.67,3.07,2.69,2.69,0,0,0,2.52,1.11Z"/><path class="cls-2" d="M144.06,209.87h-2.59V200h4.39a3.71,3.71,0,0,1,1.8.34,1.51,1.51,0,0,1,.77.92,5.72,5.72,0,0,1,.17,1.61v1.26h-2.47v-.79a3.57,3.57,0,0,0-.1-1,.55.55,0,0,0-.35-.35l-.44-.06h-1.18Z"/><path class="cls-2" d="M159.05,207.82v2.05h-3.81a4.85,4.85,0,0,1-3.76-1.35,5.15,5.15,0,0,1-1.23-3.61,4.83,4.83,0,0,1,1-3.31,4.41,4.41,0,0,1,1.92-1.34,7.48,7.48,0,0,1,2.11-.28h3.81V202H155.6a5.21,5.21,0,0,0-1.33.13,1.29,1.29,0,0,0-.77.54,1.88,1.88,0,0,0-.34,1.2h5.89V206h-5.89a2.12,2.12,0,0,0,.27,1.18,1.36,1.36,0,0,0,.78.55,6.16,6.16,0,0,0,1.37.11Z"/><path class="cls-2" d="M163.87,209.87h-2.58V200h10a7.54,7.54,0,0,1,1.76.19,3.66,3.66,0,0,1,1.27.61,2.63,2.63,0,0,1,.79,1.09,4.5,4.5,0,0,1,.28,1.73v6.27h-2.6v-5.93a2.91,2.91,0,0,0-.18-1.15.94.94,0,0,0-.57-.52,2.88,2.88,0,0,0-.92-.13h-1.49v7.73H167v-7.73h-3.08Z"/><path class="cls-2" d="M178.28,196.38H181v2.46h-2.7Zm0,3.6H181v9.89h-2.7Z"/><path class="cls-2" d="M192.17,208.69a4.54,4.54,0,0,1-1.47.92,7.33,7.33,0,0,1-1.25.37,6,6,0,0,1-1,.09,6.27,6.27,0,0,1-2.07-.36,4.81,4.81,0,0,1-1.71-1,4,4,0,0,1-1-1.44,7.24,7.24,0,0,1-.39-1.28,5.75,5.75,0,0,1,.19-2.87A7,7,0,0,1,184,202a6.12,6.12,0,0,1,.79-.93,4,4,0,0,1,1.51-.9,6.22,6.22,0,0,1,4.17,0A4.25,4.25,0,0,1,192,201a5.47,5.47,0,0,1,.81.94,6.28,6.28,0,0,1,.55,1.13,5.05,5.05,0,0,1,.28,1.84,5.74,5.74,0,0,1-.37,2.06A4.76,4.76,0,0,1,192.17,208.69Zm-4.66-.9a1.53,1.53,0,0,0,.39.11,3.57,3.57,0,0,0,.46,0,2.47,2.47,0,0,0,1.46-.47,2.24,2.24,0,0,0,.87-1.15,4.27,4.27,0,0,0,.22-1.37,3.77,3.77,0,0,0-.37-1.73,2.14,2.14,0,0,0-1.17-1.08,2.77,2.77,0,0,0-1-.19,2.73,2.73,0,0,0-1,.21,2.55,2.55,0,0,0-.84.62,2.43,2.43,0,0,0-.52.92,4,4,0,0,0-.18,1.25,3.65,3.65,0,0,0,.41,1.73A2.33,2.33,0,0,0,187.51,207.79Z"/><path class="cls-3" d="M158,165.72h-7.87v3.93H158v12.13H144.5a6.14,6.14,0,0,1-6.14-6.13v-9.6h-3.93v9.6a10.08,10.08,0,0,0,10.07,10.07H162v-20H158Z"/><path class="cls-3" d="M169.84,158.18H165.9v11.47h3.94v-7.54h11.8v13.54a6.14,6.14,0,0,1-6.14,6.13h-9.6v3.94h9.6a10.08,10.08,0,0,0,10.07-10.07V158.18H169.84Z"/><path class="cls-3" d="M175.5,134.57H158V150h0v3.94h11.81V150H162V138.51H175.5a6.14,6.14,0,0,1,6.14,6.13v9.44h3.93v-9.44A10.08,10.08,0,0,0,175.5,134.57Z"/><path class="cls-3" d="M138.36,162.11H154.1V150h-3.94v8.2h-11.8V144.64a6.14,6.14,0,0,1,6.14-6.13h9.6v-3.94h-9.6a10.08,10.08,0,0,0-10.07,10.07v17.47h3.93Z"/></svg>