<svg id="Capa_1" data-name="Capa 1" xmlns="http://www.w3.org/2000/svg" viewBox="0 0 1920 1280"><defs><style>.cls-1{fill:#fff;}.cls-2{fill:#363639;}.cls-3{fill:#f6b776;}</style></defs><rect class="cls-1" width="1920" height="1280"/><path class="cls-2" d="M863.6,780.35V767.74H848.52v-9.53h26.64v32H846.58c-1-.15-1.76-.27-2.43-.34a16.89,16.89,0,0,1-2.28-.45c-.85-.23-2-.61-3.52-1.16a20.41,20.41,0,0,1-5.65-3.76,19,19,0,0,1-5.31-8.4,35.88,35.88,0,0,1-1.91-11.86V761a28.46,28.46,0,0,1,.9-7.35,29.85,29.85,0,0,1,2.4-6.23,21.64,21.64,0,0,1,3.57-5,22.36,22.36,0,0,1,6.08-4.16q4-2,12.42-2h24.31v9.38H850.85c-3.31,0-5.88.76-7.73,2.29a12.11,12.11,0,0,0-3.91,6.19,31.38,31.38,0,0,0-1.12,8.71v.82q0,7.88,2.66,12.31t10.1,4.43Z"/><path class="cls-2" d="M896.25,790.18H885.89V750.63h17.56c3.2,0,5.61.45,7.21,1.35a6.13,6.13,0,0,1,3.07,3.68,24.14,24.14,0,0,1,.68,6.45v5H904.5V764a14.17,14.17,0,0,0-.37-4.09,2.25,2.25,0,0,0-1.43-1.39c-.65-.1-1.22-.18-1.72-.23s-1.33-.07-2.48-.07h-2.25Z"/><path class="cls-2" d="M956.21,782v8.18H941q-10.14,0-15.05-5.41T921,770.37q0-9,3.83-13.25a17.26,17.26,0,0,1,7.69-5.37,30.15,30.15,0,0,1,8.45-1.12h15.23v8.18H942.4a21.43,21.43,0,0,0-5.33.52,5.26,5.26,0,0,0-3.07,2.18,7.61,7.61,0,0,0-1.35,4.8h23.56v8.33H932.65a8.41,8.41,0,0,0,1.08,4.69,5.52,5.52,0,0,0,3.12,2.22,25.68,25.68,0,0,0,5.48.45Z"/><path class="cls-2" d="M975.5,790.18H965.14V750.63h40a31.12,31.12,0,0,1,7.05.75,14.17,14.17,0,0,1,5.07,2.44,10.3,10.3,0,0,1,3.19,4.35,18.41,18.41,0,0,1,1.13,6.94v25.07h-10.44V766.46a11.48,11.48,0,0,0-.71-4.58,3.71,3.71,0,0,0-2.29-2.1,11.67,11.67,0,0,0-3.68-.52h-5.92v30.92H987.8V759.26H975.5Z"/><path class="cls-2" d="M1033.13,736.22h10.81v9.83h-10.81Zm0,14.41h10.81v39.55h-10.81Z"/><path class="cls-2" d="M1088.67,785.45a17.59,17.59,0,0,1-5.86,3.71,32.23,32.23,0,0,1-5,1.47,23,23,0,0,1-4.2.37,24.67,24.67,0,0,1-8.25-1.46,18.92,18.92,0,0,1-6.87-4.09,15.77,15.77,0,0,1-3.94-5.74,31.19,31.19,0,0,1-1.58-5.1,22.92,22.92,0,0,1-.37-4.24,20,20,0,0,1,1.16-7.25,27,27,0,0,1,2.18-4.54,23,23,0,0,1,3.15-3.71,16.6,16.6,0,0,1,6.08-3.6,24,24,0,0,1,8.44-1.47,24.72,24.72,0,0,1,8.22,1.39,16.66,16.66,0,0,1,6.15,3.53,22.41,22.41,0,0,1,3.27,3.75,25.72,25.72,0,0,1,2.17,4.5,20.64,20.64,0,0,1,1.13,7.4,23.47,23.47,0,0,1-1.46,8.21A18.94,18.94,0,0,1,1088.67,785.45Zm-18.62-3.6a5.43,5.43,0,0,0,1.54.45,11.7,11.7,0,0,0,1.84.15,9.89,9.89,0,0,0,5.86-1.88,8.93,8.93,0,0,0,3.49-4.58,18,18,0,0,0,.86-5.47,15.6,15.6,0,0,0-1.46-6.95,8.84,8.84,0,0,0-4.7-4.31,11.45,11.45,0,0,0-3.82-.75,11.09,11.09,0,0,0-4.06.82,10.73,10.73,0,0,0-3.37,2.48,10.23,10.23,0,0,0-2.07,3.68,16.29,16.29,0,0,0-.71,5,14.69,14.69,0,0,0,1.61,6.9A9.37,9.37,0,0,0,1070.05,781.85Z"/><path class="cls-3" d="M952.13,613.58H920.66v15.74h31.47v48.53H898a24.57,24.57,0,0,1-24.55-24.55V614.9H857.71v38.4A40.33,40.33,0,0,0,898,693.58h69.88v-80H952.13Z"/><path class="cls-3" d="M999.34,583.42H983.61v45.9h15.73V599.16h47.22V653.3A24.57,24.57,0,0,1,1022,677.85h-38.4v15.73H1022a40.33,40.33,0,0,0,40.28-40.28V583.42H999.34Z"/><path class="cls-3" d="M1022,489H952.13v61.63h0v15.74h47.21V550.63H967.87v-45.9H1022a24.57,24.57,0,0,1,24.55,24.55V567h15.73V529.28A40.33,40.33,0,0,0,1022,489Z"/><path class="cls-3" d="M873.44,599.16h62.95V550.63H920.66v32.79H873.44V529.28A24.57,24.57,0,0,1,898,504.73h38.4V489H898a40.33,40.33,0,0,0-40.28,40.28v69.88h15.73Z"/></svg>