<svg id="Capa_1" data-name="Capa 1" xmlns="http://www.w3.org/2000/svg" viewBox="0 0 1280 1920"><defs><style>.cls-1{fill:#fff;}.cls-2{fill:#363639;}.cls-3{fill:#f6b776;}</style></defs><rect class="cls-1" x="-320" y="320" width="1920" height="1280" transform="translate(1600 320) rotate(90)"/><path class="cls-2" d="M543.6,829.64V817H528.52V807.5h26.64v32H526.58c-1-.15-1.76-.26-2.43-.34a14.26,14.26,0,0,1-2.28-.45c-.85-.22-2-.61-3.52-1.16a20.33,20.33,0,0,1-5.65-3.75,19,19,0,0,1-5.31-8.41,35.82,35.82,0,0,1-1.91-11.85v-3.23a28.54,28.54,0,0,1,.9-7.36,30.07,30.07,0,0,1,2.4-6.23,21.64,21.64,0,0,1,3.57-5,22.58,22.58,0,0,1,6.08-4.16q4-2,12.42-2h24.31v9.38H530.85c-3.31,0-5.88.77-7.73,2.29a12.11,12.11,0,0,0-3.91,6.19,31.48,31.48,0,0,0-1.12,8.71v.82q0,7.89,2.66,12.31t10.1,4.43Z"/><path class="cls-2" d="M576.25,839.47H565.89V799.92h17.56c3.2,0,5.61.45,7.21,1.35a6.13,6.13,0,0,1,3.07,3.68,24.14,24.14,0,0,1,.68,6.45v5H584.5v-3.15a14.27,14.27,0,0,0-.37-4.09,2.25,2.25,0,0,0-1.43-1.39c-.65-.1-1.22-.17-1.72-.22s-1.33-.08-2.48-.08h-2.25Z"/><path class="cls-2" d="M636.21,831.29v8.18H621q-10.14,0-15.05-5.4T601,819.66q0-9,3.83-13.25a17.31,17.31,0,0,1,7.69-5.36,30.14,30.14,0,0,1,8.45-1.13h15.23v8.18H622.4a21.36,21.36,0,0,0-5.33.53A5.24,5.24,0,0,0,614,810.8a7.66,7.66,0,0,0-1.35,4.81h23.56v8.33H612.65a8.45,8.45,0,0,0,1.08,4.69,5.55,5.55,0,0,0,3.12,2.21,25.68,25.68,0,0,0,5.48.45Z"/><path class="cls-2" d="M655.5,839.47H645.14V799.92h40a31.12,31.12,0,0,1,7.05.75,14.34,14.34,0,0,1,5.07,2.44,10.42,10.42,0,0,1,3.19,4.35,18.43,18.43,0,0,1,1.13,6.95v25.06H691.14V815.76a11.45,11.45,0,0,0-.71-4.58,3.71,3.71,0,0,0-2.29-2.1,11.66,11.66,0,0,0-3.68-.53h-5.92v30.92H667.8V808.55H655.5Z"/><path class="cls-2" d="M713.13,785.51h10.81v9.83H713.13Zm0,14.41h10.81v39.55H713.13Z"/><path class="cls-2" d="M768.67,834.74a17.62,17.62,0,0,1-5.86,3.72,33.17,33.17,0,0,1-5,1.46,23,23,0,0,1-4.2.38,24.44,24.44,0,0,1-8.25-1.47,18.65,18.65,0,0,1-6.87-4.09,15.77,15.77,0,0,1-3.94-5.74,30.61,30.61,0,0,1-1.58-5.1,22.92,22.92,0,0,1-.37-4.24,20,20,0,0,1,1.16-7.24,26.66,26.66,0,0,1,2.18-4.54,23.41,23.41,0,0,1,3.15-3.72,16.87,16.87,0,0,1,6.08-3.6,24,24,0,0,1,8.44-1.46,24.71,24.71,0,0,1,8.22,1.38A16.8,16.8,0,0,1,768,804a23.23,23.23,0,0,1,3.27,3.75,25.51,25.51,0,0,1,2.17,4.51,20.58,20.58,0,0,1,1.13,7.39,23.57,23.57,0,0,1-1.46,8.22A19,19,0,0,1,768.67,834.74Zm-18.62-3.6a5.43,5.43,0,0,0,1.54.45,11.7,11.7,0,0,0,1.84.15,9.88,9.88,0,0,0,5.86-1.87,9,9,0,0,0,3.49-4.58,18.07,18.07,0,0,0,.86-5.48,15.56,15.56,0,0,0-1.46-6.94,8.82,8.82,0,0,0-4.7-4.32,11.45,11.45,0,0,0-3.82-.75,11.11,11.11,0,0,0-4.06.83,10.71,10.71,0,0,0-3.37,2.47,10.31,10.31,0,0,0-2.07,3.68,16.33,16.33,0,0,0-.71,5,14.69,14.69,0,0,0,1.61,6.9A9.33,9.33,0,0,0,750.05,831.14Z"/><path class="cls-3" d="M632.13,662.88H600.66v15.74h31.47v48.52H578a24.57,24.57,0,0,1-24.55-24.54V664.19H537.71V702.6A40.33,40.33,0,0,0,578,742.88h69.88v-80H632.13Z"/><path class="cls-3" d="M679.34,632.72H663.61v45.9h15.73V648.45h47.22V702.6A24.57,24.57,0,0,1,702,727.14h-38.4v15.74H702a40.33,40.33,0,0,0,40.28-40.28V632.72H679.34Z"/><path class="cls-3" d="M702,538.29H632.13v61.64h0v15.74h47.21V599.93H647.87V554H702a24.57,24.57,0,0,1,24.55,24.54v37.75h15.73V578.57A40.33,40.33,0,0,0,702,538.29Z"/><path class="cls-3" d="M553.44,648.45h62.95V599.93H600.66v32.79H553.44V578.57A24.57,24.57,0,0,1,578,554h38.4V538.29H578a40.33,40.33,0,0,0-40.28,40.28v69.88h15.73Z"/></svg>