<svg id="Capa_1" data-name="Capa 1" xmlns="http://www.w3.org/2000/svg" viewBox="0 0 800 480"><defs><style>.cls-1{fill:#fff;}.cls-2{fill:#363639;}.cls-3{fill:#f6b776;}</style></defs><rect class="cls-1" width="800" height="480"/><path class="cls-2" d="M359.83,298.48v-5.26h-6.28v-4h11.1v13.32H352.74l-1-.14a6.77,6.77,0,0,1-1-.18c-.36-.1-.84-.26-1.47-.49A8.51,8.51,0,0,1,347,300.2a8,8,0,0,1-2.22-3.5,15,15,0,0,1-.79-4.95v-1.34a11.4,11.4,0,0,1,.38-3.06,12.21,12.21,0,0,1,1-2.6,8.86,8.86,0,0,1,1.48-2.08,9.46,9.46,0,0,1,2.53-1.73,11.93,11.93,0,0,1,5.18-.85h10.13V284H354.52a4.94,4.94,0,0,0-3.22.95,5.15,5.15,0,0,0-1.63,2.58,13.24,13.24,0,0,0-.47,3.63v.34a10,10,0,0,0,1.11,5.13c.74,1.23,2.15,1.85,4.21,1.85Z"/><path class="cls-2" d="M373.44,302.57h-4.32V286.09h7.32a6.23,6.23,0,0,1,3,.57,2.49,2.49,0,0,1,1.28,1.53,10,10,0,0,1,.28,2.69V293h-4.12v-1.31a6,6,0,0,0-.16-1.7.92.92,0,0,0-.59-.58l-.72-.1c-.21,0-.56,0-1,0h-.93Z"/><path class="cls-2" d="M398.42,299.17v3.4h-6.35q-4.21,0-6.27-2.25a8.59,8.59,0,0,1-2-6q0-3.75,1.59-5.52a7.2,7.2,0,0,1,3.21-2.24,12.57,12.57,0,0,1,3.51-.47h6.35v3.41h-5.75a9.16,9.16,0,0,0-2.22.22,2.17,2.17,0,0,0-1.28.91,3.15,3.15,0,0,0-.57,2h9.82v3.47H388.6a3.44,3.44,0,0,0,.46,2,2.32,2.32,0,0,0,1.29.92,11.16,11.16,0,0,0,2.29.19Z"/><path class="cls-2" d="M406.46,302.57h-4.32V286.09h16.67a12.92,12.92,0,0,1,2.94.32,6.09,6.09,0,0,1,2.11,1,4.47,4.47,0,0,1,1.33,1.82,7.69,7.69,0,0,1,.47,2.89v10.44h-4.35v-9.88a4.7,4.7,0,0,0-.3-1.9,1.56,1.56,0,0,0-.95-.88,4.75,4.75,0,0,0-1.53-.22h-2.47v12.88h-4.47V289.69h-5.13Z"/><path class="cls-2" d="M430.47,280.09H435v4.1h-4.5Zm0,6H435v16.48h-4.5Z"/><path class="cls-2" d="M453.61,300.6a7.2,7.2,0,0,1-2.44,1.55,13.44,13.44,0,0,1-2.09.61,9.19,9.19,0,0,1-1.75.16,10.36,10.36,0,0,1-3.44-.61A7.87,7.87,0,0,1,441,300.6a6.56,6.56,0,0,1-1.65-2.39,12.54,12.54,0,0,1-.65-2.12,9.18,9.18,0,0,1-.16-1.77,8.17,8.17,0,0,1,.49-3,11.31,11.31,0,0,1,.9-1.89,9.76,9.76,0,0,1,1.32-1.55,7,7,0,0,1,2.53-1.5,9.94,9.94,0,0,1,3.52-.61,10.11,10.11,0,0,1,3.42.58,6.93,6.93,0,0,1,2.56,1.47,9,9,0,0,1,1.36,1.56,10,10,0,0,1,.91,1.88,8.64,8.64,0,0,1,.47,3.08,9.63,9.63,0,0,1-.61,3.42A7.88,7.88,0,0,1,453.61,300.6Zm-7.75-1.5a1.94,1.94,0,0,0,.64.19,5,5,0,0,0,.76.06,4.1,4.1,0,0,0,2.44-.78,3.74,3.74,0,0,0,1.46-1.91,7.44,7.44,0,0,0,.36-2.28,6.54,6.54,0,0,0-.61-2.89,3.72,3.72,0,0,0-2-1.8,4.69,4.69,0,0,0-1.59-.31,4.55,4.55,0,0,0-1.69.34,4.67,4.67,0,0,0-1.41,1,4.34,4.34,0,0,0-.86,1.54,6.63,6.63,0,0,0-.3,2.09,6.12,6.12,0,0,0,.68,2.88A3.85,3.85,0,0,0,445.86,299.1Z"/><path class="cls-3" d="M396.72,229H383.61v6.56h13.11v20.22H374.16a10.23,10.23,0,0,1-10.22-10.23v-16h-6.56v16a16.8,16.8,0,0,0,16.78,16.79h29.12V229h-6.56Z"/><path class="cls-3" d="M416.39,216.43h-6.55v19.12h6.55V223h19.67v22.56a10.23,10.23,0,0,1-10.22,10.23h-16v6.56h16a16.8,16.8,0,0,0,16.78-16.79V216.43H416.39Z"/><path class="cls-3" d="M425.84,177.08H396.72v25.68h0v6.56h19.67v-6.56H403.28V183.64h22.56a10.23,10.23,0,0,1,10.22,10.22v15.73h6.56V193.86A16.8,16.8,0,0,0,425.84,177.08Z"/><path class="cls-3" d="M363.94,223h26.22V202.76h-6.55v13.67H363.94V193.86a10.23,10.23,0,0,1,10.22-10.22h16v-6.56h-16a16.8,16.8,0,0,0-16.78,16.78V223h6.56Z"/></svg>