<svg id="Capa_1" data-name="Capa 1" xmlns="http://www.w3.org/2000/svg" viewBox="0 0 480 800"><defs><style>.cls-1{fill:#fff;}.cls-2{fill:#363639;}.cls-3{fill:#f6b776;}</style></defs><rect class="cls-1" width="480" height="800"/><path class="cls-2" d="M199.83,345.68v-5.25h-6.28v-4h11.1v13.32H192.74l-1-.14a5.68,5.68,0,0,1-.95-.19c-.36-.09-.84-.25-1.47-.48A8.36,8.36,0,0,1,187,347.4a7.89,7.89,0,0,1-2.22-3.5A14.92,14.92,0,0,1,184,339v-1.34a11.48,11.48,0,0,1,.38-3.07,12.12,12.12,0,0,1,1-2.59,8.66,8.66,0,0,1,1.48-2.08,9.24,9.24,0,0,1,2.53-1.74,12.11,12.11,0,0,1,5.18-.84h10.13v3.91H194.52a4.89,4.89,0,0,0-3.22,1,5.15,5.15,0,0,0-1.63,2.58,13.14,13.14,0,0,0-.47,3.63v.34a10,10,0,0,0,1.11,5.13c.74,1.23,2.15,1.84,4.21,1.84Z"/><path class="cls-2" d="M213.44,349.78h-4.32V333.3h7.32a6.37,6.37,0,0,1,3,.56,2.53,2.53,0,0,1,1.28,1.54,10,10,0,0,1,.28,2.69v2.09h-4.12v-1.31a6,6,0,0,0-.16-1.71.94.94,0,0,0-.59-.58l-.72-.09c-.21,0-.56,0-1,0h-.93Z"/><path class="cls-2" d="M238.42,346.37v3.41h-6.35q-4.22,0-6.27-2.25a8.6,8.6,0,0,1-2-6q0-3.75,1.59-5.51a7.12,7.12,0,0,1,3.21-2.24,12.57,12.57,0,0,1,3.51-.47h6.35v3.41h-5.75a8.68,8.68,0,0,0-2.22.22,2.16,2.16,0,0,0-1.28.9,3.16,3.16,0,0,0-.57,2h9.82v3.47H228.6a3.43,3.43,0,0,0,.46,1.95,2.23,2.23,0,0,0,1.29.92,10.49,10.49,0,0,0,2.29.19Z"/><path class="cls-2" d="M246.46,349.78h-4.32V333.3h16.67a13.53,13.53,0,0,1,2.94.31,5.93,5.93,0,0,1,2.11,1,4.44,4.44,0,0,1,1.33,1.81,7.75,7.75,0,0,1,.47,2.9v10.44h-4.35V339.9A4.75,4.75,0,0,0,261,338a1.51,1.51,0,0,0-.95-.87,4.75,4.75,0,0,0-1.53-.22h-2.47v12.88h-4.47V336.9h-5.13Z"/><path class="cls-2" d="M270.47,327.3H275v4.09h-4.5Zm0,6H275v16.48h-4.5Z"/><path class="cls-2" d="M293.61,347.81a7.2,7.2,0,0,1-2.44,1.55,14.65,14.65,0,0,1-2.09.61,10.1,10.1,0,0,1-5.19-.46,7.72,7.72,0,0,1-2.86-1.7,6.65,6.65,0,0,1-1.65-2.39,12.88,12.88,0,0,1-.65-2.13,9,9,0,0,1-.16-1.77,8.11,8.11,0,0,1,.49-3,10.58,10.58,0,0,1,.9-1.89,9.33,9.33,0,0,1,1.32-1.55,6.71,6.71,0,0,1,2.53-1.5,9.94,9.94,0,0,1,3.52-.61,10.11,10.11,0,0,1,3.42.58,6.93,6.93,0,0,1,2.56,1.46,9.41,9.41,0,0,1,1.36,1.57,9.9,9.9,0,0,1,.91,1.87,8.67,8.67,0,0,1,.47,3.08,9.72,9.72,0,0,1-.61,3.43A8,8,0,0,1,293.61,347.81Zm-7.75-1.5a2.58,2.58,0,0,0,.64.19,5,5,0,0,0,.76.06,4.1,4.1,0,0,0,2.44-.78,3.74,3.74,0,0,0,1.46-1.91,7.44,7.44,0,0,0,.36-2.28,6.59,6.59,0,0,0-.61-2.9,3.67,3.67,0,0,0-2-1.79,4.73,4.73,0,0,0-1.59-.32,4.57,4.57,0,0,0-1.69.35,4.51,4.51,0,0,0-1.41,1,4.38,4.38,0,0,0-.86,1.53,6.74,6.74,0,0,0-.3,2.1,6.05,6.05,0,0,0,.68,2.87A3.87,3.87,0,0,0,285.86,346.31Z"/><path class="cls-3" d="M236.72,276.2H223.61v6.56h13.11V303H214.16a10.23,10.23,0,0,1-10.22-10.22v-16h-6.56v16a16.8,16.8,0,0,0,16.78,16.78h29.12V276.2h-6.56Z"/><path class="cls-3" d="M256.39,263.63h-6.55v19.13h6.55V270.19h19.67v22.56A10.23,10.23,0,0,1,265.84,303h-16v6.56h16a16.8,16.8,0,0,0,16.78-16.78V263.63H256.39Z"/><path class="cls-3" d="M265.84,224.29H236.72V250h0v6.56h19.67V250H243.28V230.85h22.56a10.23,10.23,0,0,1,10.22,10.22V256.8h6.56V241.07A16.8,16.8,0,0,0,265.84,224.29Z"/><path class="cls-3" d="M203.94,270.19h26.22V250h-6.55v13.66H203.94V241.07a10.23,10.23,0,0,1,10.22-10.22h16v-6.56h-16a16.8,16.8,0,0,0-16.78,16.78v29.12h6.56Z"/></svg>