<svg id="Capa_1" data-name="Capa 1" xmlns="http://www.w3.org/2000/svg" viewBox="0 0 960 1600"><defs><style>.cls-1{fill:#fff;}.cls-2{fill:#363639;}.cls-3{fill:#f6b776;}</style></defs><rect class="cls-1" width="960" height="1600"/><path class="cls-2" d="M399.67,691.37V680.86H387.1v-7.94h22.2v26.64H385.48c-.79-.13-1.46-.22-2-.28a12.83,12.83,0,0,1-1.91-.38c-.7-.18-1.68-.51-2.93-1a16.93,16.93,0,0,1-4.7-3.12,15.81,15.81,0,0,1-4.43-7,29.8,29.8,0,0,1-1.59-9.88v-2.69a23.78,23.78,0,0,1,.75-6.13,25.3,25.3,0,0,1,2-5.19,18.27,18.27,0,0,1,3-4.16,19.23,19.23,0,0,1,5.07-3.47Q382,654.6,389,654.59H409.3v7.82H389a9.85,9.85,0,0,0-6.44,1.91,10.09,10.09,0,0,0-3.26,5.16,26.38,26.38,0,0,0-.93,7.25v.69q0,6.57,2.22,10.26t8.41,3.69Z"/><path class="cls-2" d="M426.87,699.56h-8.63v-33h14.64a12.54,12.54,0,0,1,6,1.13,5.15,5.15,0,0,1,2.57,3.06,20.41,20.41,0,0,1,.56,5.38v4.19h-8.26v-2.63a11.7,11.7,0,0,0-.31-3.4,1.86,1.86,0,0,0-1.19-1.16c-.54-.09-1-.15-1.44-.19s-1.1-.06-2.06-.06h-1.88Z"/><path class="cls-2" d="M476.84,692.74v6.82H464.15q-8.44,0-12.54-4.5t-4.1-12q0-7.5,3.19-11a14.38,14.38,0,0,1,6.41-4.47,24.92,24.92,0,0,1,7-.94h12.69v6.82H465.33a17.47,17.47,0,0,0-4.44.44,4.38,4.38,0,0,0-2.56,1.81,6.34,6.34,0,0,0-1.13,4h19.64v6.94H457.2a7,7,0,0,0,.91,3.91,4.62,4.62,0,0,0,2.6,1.85,21.41,21.41,0,0,0,4.56.37Z"/><path class="cls-2" d="M492.91,699.56h-8.63v-33h33.34a25.86,25.86,0,0,1,5.88.63,11.93,11.93,0,0,1,4.22,2,8.71,8.71,0,0,1,2.65,3.63,15.22,15.22,0,0,1,.94,5.78v20.89h-8.69V679.8A9.75,9.75,0,0,0,522,676a3.14,3.14,0,0,0-1.91-1.75,9.8,9.8,0,0,0-3.07-.44h-4.94v25.77h-8.94V673.79H492.91Z"/><path class="cls-2" d="M540.94,654.59h9v8.2h-9Zm0,12h9v33h-9Z"/><path class="cls-2" d="M587.22,695.62a14.66,14.66,0,0,1-4.88,3.1,26.46,26.46,0,0,1-4.19,1.21,19,19,0,0,1-3.5.32,20.55,20.55,0,0,1-6.88-1.22,15.81,15.81,0,0,1-5.72-3.41,13.14,13.14,0,0,1-3.28-4.78,25.57,25.57,0,0,1-1.32-4.26,18.85,18.85,0,0,1-.31-3.53,16.52,16.52,0,0,1,1-6,23.35,23.35,0,0,1,1.81-3.78,20,20,0,0,1,2.63-3.1,14.17,14.17,0,0,1,5.07-3,20.05,20.05,0,0,1,7-1.22,20.49,20.49,0,0,1,6.85,1.16,13.92,13.92,0,0,1,5.13,2.94,19.37,19.37,0,0,1,2.72,3.13,20.62,20.62,0,0,1,1.81,3.75,17.05,17.05,0,0,1,.94,6.16,19.58,19.58,0,0,1-1.22,6.85A15.67,15.67,0,0,1,587.22,695.62Zm-15.51-3A4.66,4.66,0,0,0,573,693a9.15,9.15,0,0,0,1.54.13,8.14,8.14,0,0,0,4.87-1.57,7.43,7.43,0,0,0,2.91-3.81,14.89,14.89,0,0,0,.72-4.57,12.84,12.84,0,0,0-1.22-5.78,7.31,7.31,0,0,0-3.91-3.6,9.69,9.69,0,0,0-3.19-.62,9.14,9.14,0,0,0-3.37.69,9,9,0,0,0-2.82,2.06A8.53,8.53,0,0,0,566.8,679a13.67,13.67,0,0,0-.59,4.19,12.29,12.29,0,0,0,1.34,5.76A7.82,7.82,0,0,0,571.71,692.62Z"/><path class="cls-3" d="M473.44,552.4H447.21v13.11h26.23V606H428.32a20.47,20.47,0,0,1-20.45-20.45v-32H394.76v32a33.59,33.59,0,0,0,33.56,33.56h58.24V552.4H473.44Z"/><path class="cls-3" d="M512.79,527.26H499.67v38.25h13.12V540.38h39.34V585.5A20.48,20.48,0,0,1,531.68,606h-32v13.11h32a33.59,33.59,0,0,0,33.56-33.56V527.26H512.79Z"/><path class="cls-3" d="M531.68,448.58H473.44v51.36h0v13.12h39.35V499.94H486.56V461.69h45.12a20.47,20.47,0,0,1,20.45,20.45V513.6h13.11V482.14A33.59,33.59,0,0,0,531.68,448.58Z"/><path class="cls-3" d="M407.87,540.38h52.46V499.94H447.21v27.32H407.87V482.14a20.47,20.47,0,0,1,20.45-20.45h32V448.58h-32a33.59,33.59,0,0,0-33.56,33.56v58.24h13.11Z"/></svg>